<svg id="visual" viewBox="0 0 960 540" width="960" height="540" xmlns="http://www.w3.org/2000/svg" xmlns:xlink="http://www.w3.org/1999/xlink" version="1.1"><rect x="0" y="0" width="960" height="540" fill="#fff"></rect><defs><linearGradient id="grad1_0" x1="43.8%" y1="100%" x2="100%" y2="0%"><stop offset="14.444444444444446%" stop-color="#1e3a8a" stop-opacity="1"></stop><stop offset="85.55555555555554%" stop-color="#1e3a8a" stop-opacity="1"></stop></linearGradient></defs><defs><linearGradient id="grad1_1" x1="43.8%" y1="100%" x2="100%" y2="0%"><stop offset="14.444444444444446%" stop-color="#1e3a8a" stop-opacity="1"></stop><stop offset="85.55555555555554%" stop-color="#6066a7" stop-opacity="1"></stop></linearGradient></defs><defs><linearGradient id="grad1_2" x1="43.8%" y1="100%" x2="100%" y2="0%"><stop offset="14.444444444444446%" stop-color="#9696c4" stop-opacity="1"></stop><stop offset="85.55555555555554%" stop-color="#6066a7" stop-opacity="1"></stop></linearGradient></defs><defs><linearGradient id="grad1_3" x1="43.8%" y1="100%" x2="100%" y2="0%"><stop offset="14.444444444444446%" stop-color="#9696c4" stop-opacity="1"></stop><stop offset="85.55555555555554%" stop-color="#cac9e1" stop-opacity="1"></stop></linearGradient></defs><defs><linearGradient id="grad1_4" x1="43.8%" y1="100%" x2="100%" y2="0%"><stop offset="14.444444444444446%" stop-color="#ffffff" stop-opacity="1"></stop><stop offset="85.55555555555554%" stop-color="#cac9e1" stop-opacity="1"></stop></linearGradient></defs><defs><linearGradient id="grad2_0" x1="0%" y1="100%" x2="56.3%" y2="0%"><stop offset="14.444444444444446%" stop-color="#1e3a8a" stop-opacity="1"></stop><stop offset="85.55555555555554%" stop-color="#1e3a8a" stop-opacity="1"></stop></linearGradient></defs><defs><linearGradient id="grad2_1" x1="0%" y1="100%" x2="56.3%" y2="0%"><stop offset="14.444444444444446%" stop-color="#6066a7" stop-opacity="1"></stop><stop offset="85.55555555555554%" stop-color="#1e3a8a" stop-opacity="1"></stop></linearGradient></defs><defs><linearGradient id="grad2_2" x1="0%" y1="100%" x2="56.3%" y2="0%"><stop offset="14.444444444444446%" stop-color="#6066a7" stop-opacity="1"></stop><stop offset="85.55555555555554%" stop-color="#9696c4" stop-opacity="1"></stop></linearGradient></defs><defs><linearGradient id="grad2_3" x1="0%" y1="100%" x2="56.3%" y2="0%"><stop offset="14.444444444444446%" stop-color="#cac9e1" stop-opacity="1"></stop><stop offset="85.55555555555554%" stop-color="#9696c4" stop-opacity="1"></stop></linearGradient></defs><defs><linearGradient id="grad2_4" x1="0%" y1="100%" x2="56.3%" y2="0%"><stop offset="14.444444444444446%" stop-color="#cac9e1" stop-opacity="1"></stop><stop offset="85.55555555555554%" stop-color="#ffffff" stop-opacity="1"></stop></linearGradient></defs><g transform="translate(960, 540)"><path d="M-270 0C-256.4 -21.4 -242.8 -42.7 -232.8 -62.4C-222.8 -82.1 -216.4 -100.1 -210.4 -121.5C-204.5 -142.9 -198.9 -167.8 -185.3 -185.3C-171.7 -202.7 -150.1 -212.6 -130 -225.2C-109.9 -237.7 -91.3 -252.9 -69.9 -260.8C-48.5 -268.7 -24.2 -269.4 0 -270L0 0Z" fill="#e4e4f0"></path><path d="M-216 0C-205.1 -17.1 -194.2 -34.2 -186.2 -49.9C-178.2 -65.6 -173.1 -80 -168.4 -97.2C-163.6 -114.4 -159.1 -134.3 -148.2 -148.2C-137.3 -162.1 -120.1 -170.1 -104 -180.1C-87.9 -190.2 -73 -202.3 -55.9 -208.6C-38.8 -215 -19.4 -215.5 0 -216L0 0Z" fill="#b0afd3"></path><path d="M-162 0C-153.8 -12.8 -145.7 -25.6 -139.7 -37.4C-133.7 -49.2 -129.9 -60 -126.3 -72.9C-122.7 -85.8 -119.3 -100.7 -111.2 -111.2C-103 -121.6 -90.1 -127.6 -78 -135.1C-65.9 -142.6 -54.8 -151.7 -41.9 -156.5C-29.1 -161.2 -14.5 -161.6 0 -162L0 0Z" fill="#7b7eb6"></path><path d="M-108 0C-102.6 -8.5 -97.1 -17.1 -93.1 -25C-89.1 -32.8 -86.6 -40 -84.2 -48.6C-81.8 -57.2 -79.5 -67.1 -74.1 -74.1C-68.7 -81.1 -60 -85 -52 -90.1C-44 -95.1 -36.5 -101.2 -28 -104.3C-19.4 -107.5 -9.7 -107.7 0 -108L0 0Z" fill="#434f98"></path><path d="M-54 0C-51.3 -4.3 -48.6 -8.5 -46.6 -12.5C-44.6 -16.4 -43.3 -20 -42.1 -24.3C-40.9 -28.6 -39.8 -33.6 -37.1 -37.1C-34.3 -40.5 -30 -42.5 -26 -45C-22 -47.5 -18.3 -50.6 -14 -52.2C-9.7 -53.7 -4.8 -53.9 0 -54L0 0Z" fill="#1e3a8a"></path></g><g transform="translate(0, 0)"><path d="M270 0C268.1 23.4 266.2 46.9 260.8 69.9C255.4 92.9 246.3 115.4 233 134.5C219.6 153.6 201.8 169.1 183.1 183.1C164.4 197.1 144.8 209.6 124 214.8C103.2 220 81.4 218 60.6 226C39.7 234 19.9 252 0 270L0 0Z" fill="#e4e4f0"></path><path d="M216 0C214.5 18.8 213 37.5 208.6 55.9C204.3 74.3 197.1 92.3 186.4 107.6C175.7 122.9 161.5 135.3 146.5 146.5C131.5 157.7 115.8 167.6 99.2 171.8C82.6 176 65.1 174.4 48.5 180.8C31.8 187.2 15.9 201.6 0 216L0 0Z" fill="#b0afd3"></path><path d="M162 0C160.9 14.1 159.7 28.1 156.5 41.9C153.2 55.7 147.8 69.3 139.8 80.7C131.8 92.1 121.1 101.5 109.9 109.9C98.7 118.3 86.9 125.7 74.4 128.9C61.9 132 48.8 130.8 36.3 135.6C23.8 140.4 11.9 151.2 0 162L0 0Z" fill="#7b7eb6"></path><path d="M108 0C107.2 9.4 106.5 18.8 104.3 28C102.1 37.2 98.5 46.2 93.2 53.8C87.8 61.4 80.7 67.7 73.3 73.3C65.8 78.9 57.9 83.8 49.6 85.9C41.3 88 32.6 87.2 24.2 90.4C15.9 93.6 7.9 100.8 0 108L0 0Z" fill="#434f98"></path><path d="M54 0C53.6 4.7 53.2 9.4 52.2 14C51.1 18.6 49.3 23.1 46.6 26.9C43.9 30.7 40.4 33.8 36.6 36.6C32.9 39.4 29 41.9 24.8 43C20.6 44 16.3 43.6 12.1 45.2C7.9 46.8 4 50.4 0 54L0 0Z" fill="#1e3a8a"></path></g></svg>